<svg width="40" height="41" viewBox="0 0 40 41" fill="none" xmlns="http://www.w3.org/2000/svg">
<path d="M37.5 0.587891H2.5C1.83719 0.588759 1.20174 0.894144 0.733061 1.43705C0.264383 1.97995 0.000749912 2.71604 0 3.48382V30.1264C0.000749912 30.8941 0.264383 31.6302 0.733061 32.1731C1.20174 32.716 1.83719 33.0214 2.5 33.0223H15.3125C15.2052 35.1433 14.6566 37.2027 13.7134 39.025L13.4283 39.5752C13.3676 39.6924 13.3349 39.8261 13.3334 39.9628C13.3319 40.0994 13.3617 40.2341 13.4199 40.353C13.478 40.4719 13.5623 40.5708 13.6642 40.6397C13.7662 40.7085 13.882 40.7448 14 40.7448H26C26.118 40.7448 26.2338 40.7085 26.3358 40.6397C26.4377 40.5708 26.522 40.4719 26.5801 40.353C26.6383 40.2341 26.6681 40.0994 26.6666 39.9628C26.6651 39.8261 26.6324 39.6924 26.5717 39.5752L26.2866 39.025C25.3434 37.2027 24.7948 35.1433 24.6875 33.0223H37.5C38.1628 33.0214 38.7983 32.716 39.2669 32.1731C39.7356 31.6302 39.9993 30.8941 40 30.1264V3.48382C39.9993 2.71604 39.7356 1.97995 39.2669 1.43705C38.7983 0.894144 38.1628 0.588759 37.5 0.587891ZM24.8399 39.2003H15.1601C16.0426 37.2928 16.551 35.1834 16.6492 33.0223H18.1147C18.0079 33.3717 17.975 33.7458 18.0189 34.113C18.0627 34.4802 18.182 34.8299 18.3668 35.1326C18.5515 35.4354 18.7962 35.6823 19.0804 35.8528C19.3646 36.0232 19.68 36.1122 20 36.1122C20.32 36.1122 20.6354 36.0232 20.9196 35.8528C21.2038 35.6823 21.4485 35.4354 21.6332 35.1326C21.818 34.8299 21.9373 34.4802 21.9811 34.113C22.025 33.7458 21.9921 33.3717 21.8853 33.0223H23.3508C23.449 35.1834 23.9574 37.2928 24.8399 39.2003ZM19.3333 33.7945C19.3333 33.6418 19.3724 33.4925 19.4457 33.3655C19.5189 33.2385 19.6231 33.1395 19.7449 33.0811C19.8667 33.0226 20.0007 33.0073 20.1301 33.0371C20.2594 33.0669 20.3782 33.1405 20.4714 33.2485C20.5646 33.3565 20.6281 33.4941 20.6539 33.6439C20.6796 33.7937 20.6664 33.9489 20.6159 34.09C20.5655 34.2312 20.48 34.3518 20.3704 34.4366C20.2607 34.5215 20.1319 34.5668 20 34.5668C19.8232 34.5665 19.6538 34.4851 19.5288 34.3403C19.4038 34.1956 19.3335 33.9993 19.3333 33.7945ZM38.6667 30.1264C38.6663 30.4847 38.5433 30.8282 38.3246 31.0815C38.1059 31.3349 37.8093 31.4774 37.5 31.4778H2.5C2.19068 31.4774 1.89413 31.3349 1.67541 31.0815C1.45669 30.8282 1.33366 30.4847 1.33333 30.1264V28.3888H38.6667V30.1264ZM38.6667 26.8443H1.33333V3.48382C1.33366 3.12551 1.45669 2.78199 1.67541 2.52863C1.89413 2.27527 2.19068 2.13277 2.5 2.13239H37.5C37.8093 2.13277 38.1059 2.27527 38.3246 2.52863C38.5433 2.78199 38.6663 3.12551 38.6667 3.48382V26.8443Z" fill="#BA68FB"/>
<path d="M26 22.2108H18.6666V21.4386C18.6666 21.2338 18.5964 21.0373 18.4714 20.8925C18.3464 20.7477 18.1768 20.6663 18 20.6663H16C15.8232 20.6663 15.6536 20.7477 15.5286 20.8925C15.4035 21.0373 15.3333 21.2338 15.3333 21.4386V22.2108H14C13.8232 22.2108 13.6536 22.2922 13.5286 22.437C13.4036 22.5818 13.3333 22.7782 13.3333 22.9831C13.3333 23.1879 13.4036 23.3843 13.5286 23.5291C13.6536 23.6739 13.8232 23.7553 14 23.7553H15.3333V24.5276C15.3333 24.7324 15.4035 24.9288 15.5286 25.0736C15.6536 25.2184 15.8232 25.2998 16 25.2998H18C18.1768 25.2998 18.3464 25.2184 18.4714 25.0736C18.5964 24.9288 18.6666 24.7324 18.6666 24.5276V23.7553H26C26.1768 23.7553 26.3463 23.6739 26.4714 23.5291C26.5964 23.3843 26.6666 23.1879 26.6666 22.9831C26.6666 22.7782 26.5964 22.5818 26.4714 22.437C26.3463 22.2922 26.1768 22.2108 26 22.2108ZM17.3333 23.7553H16.6666V22.2108H17.3333V23.7553Z" fill="#BA68FB"/>
<path d="M26.324 7.63572L26.32 7.63312L26.3165 7.63099L20.3237 3.7741C20.2247 3.71037 20.1133 3.67693 20 3.67693C19.8867 3.67693 19.7753 3.71037 19.6762 3.7741L13.6762 7.63534C13.6741 7.63669 13.6728 7.63833 13.6708 7.63968C13.6688 7.64103 13.6648 7.64286 13.6619 7.6448C13.5618 7.71299 13.4789 7.81027 13.4213 7.92701C13.3636 8.04375 13.3333 8.1759 13.3333 8.31038V16.0328C13.3333 16.1706 13.3651 16.3058 13.4254 16.4245C13.4857 16.5432 13.5723 16.641 13.6762 16.7079L19.6762 20.5691C19.7735 20.6321 19.883 20.6655 19.9945 20.6663C20.1059 20.6671 20.2157 20.6353 20.3137 20.5738C20.3172 20.5725 20.3205 20.571 20.3237 20.5691L26.3237 16.7079C26.4276 16.641 26.5142 16.5432 26.5745 16.4245C26.6348 16.3058 26.6666 16.1706 26.6666 16.0328V8.31038C26.6666 8.17274 26.6349 8.03761 26.5746 7.91898C26.5144 7.80036 26.4278 7.70256 26.324 7.63572ZM19.3333 18.5813L14.6666 15.5781V9.6232L19.3333 12.6264V18.5813ZM20 11.2878L15.3727 8.31038L20 5.33249L24.6272 8.31038L20 11.2878ZM25.3333 15.5781L20.6666 18.5813V12.6253L25.3333 9.6232V15.5781Z" fill="#BA68FB"/>
</svg>
