<svg width="40" height="41" viewBox="0 0 40 41" fill="none" xmlns="http://www.w3.org/2000/svg">
<path d="M31.3333 3.23736C31.3342 3.08123 31.28 2.92983 31.1803 2.81C31.0806 2.69018 30.9419 2.60969 30.7887 2.5828L20.122 0.571592C20.0409 0.556865 19.9578 0.556865 19.8767 0.571592L9.21 2.58347C9.05699 2.61024 8.9184 2.69066 8.81891 2.8104C8.71941 2.93014 8.66546 3.08143 8.66667 3.23736V5.24522H0V33.3553H12V34.8143L2.55667 36.7111C1.45933 36.8944 0 37.371 0 39.3788V40.0481C2.84281e-05 40.1453 0.0211539 40.2414 0.0619067 40.3296C0.102659 40.4178 0.162061 40.496 0.23598 40.5588C0.309898 40.6216 0.396559 40.6675 0.489934 40.6933C0.583308 40.719 0.681155 40.7241 0.776667 40.708L12.722 38.7095H27.278L39.2233 40.708C39.2596 40.7145 39.2965 40.7176 39.3333 40.7174C39.5101 40.7174 39.6797 40.6469 39.8047 40.5214C39.9298 40.3959 40 40.2256 40 40.0481V39.3788C40 37.377 38.55 36.8971 37.454 36.7124L28 34.8143V33.3553H40V5.24522H31.3333V3.23736ZM20 1.91083L27.5453 3.33106L20 5.22447L12.4547 3.33106L20 1.91083ZM30 4.09472V14.8207L20.6667 18.3345V6.43722L30 4.09472ZM10 4.09472L19.3333 6.43722V18.3345L10 14.8207V4.09472ZM9.09933 15.9116L19.766 19.9274C19.8425 19.9486 19.9209 19.9627 20 19.9695C20.0791 19.9627 20.1575 19.9486 20.234 19.9274L30.9007 15.9116C31.0278 15.8638 31.1374 15.7781 31.2147 15.666C31.292 15.5539 31.3334 15.4208 31.3333 15.2845V9.26094H36V29.3395H4V9.26094H8.66667V15.2845C8.66658 15.4208 8.70797 15.5539 8.78529 15.666C8.86261 15.7781 8.97218 15.8638 9.09933 15.9116ZM37.2 38.0269L37.2207 38.0309C38.38 38.225 38.6367 38.5864 38.662 39.2577L27.4407 37.3837C27.4053 37.3763 27.3694 37.372 27.3333 37.371H12.6667C12.6298 37.3708 12.593 37.3739 12.5567 37.3803L1.33333 39.2577C1.35867 38.5884 1.616 38.225 2.79533 38.0269L12.7333 36.0324H27.2667L37.2 38.0269ZM13.3333 34.6938V33.3553H26.6667V34.6938H13.3333ZM38.6667 6.58379V32.0167H1.33333V6.58379H8.66667V7.92237H2.66667V30.6781H37.3333V7.92237H31.3333V6.58379H38.6667Z" fill="#67AA82"/>
<path d="M9.62598 21.4232C9.53582 21.4846 9.462 21.5671 9.41098 21.6637C9.35996 21.7603 9.33329 21.868 9.33331 21.9774V25.9931C9.33321 26.1269 9.37304 26.2576 9.44767 26.3684C9.5223 26.4793 9.62829 26.5651 9.75198 26.6149L13.0853 27.9534C13.1663 27.9772 13.2493 27.9931 13.3333 28.001C13.4173 27.9931 13.5003 27.9772 13.5813 27.9534L16.9146 26.6149C17.0383 26.5651 17.1443 26.4793 17.219 26.3684C17.2936 26.2576 17.3334 26.1269 17.3333 25.9931V21.9774C17.3333 21.868 17.3067 21.7603 17.2556 21.6637C17.2046 21.5671 17.1308 21.4846 17.0406 21.4232C17 21.3984 16.9579 21.3761 16.9146 21.3563L13.5813 20.0177C13.4219 19.9548 13.2447 19.9548 13.0853 20.0177L9.75198 21.3563C9.70878 21.3762 9.66672 21.3986 9.62598 21.4232ZM16 25.54L14 26.3431V23.7691L16 22.9659V25.54ZM13.3333 21.3596L14.8713 21.9774L13.3333 22.5951L11.7953 21.9774L13.3333 21.3596ZM10.6666 22.9659L12.6666 23.7691V26.3431L10.6666 25.54V22.9659Z" fill="#67AA82"/>
<path d="M25.0353 23.9183L27.702 25.2569C27.7945 25.3033 27.8965 25.3275 28 25.3275C28.1034 25.3275 28.2054 25.3033 28.298 25.2569L30.9646 23.9183C31.076 23.8624 31.1695 23.7764 31.2347 23.67C31.2998 23.5635 31.334 23.4409 31.3333 23.3159V20.6388C31.3334 20.5247 31.3044 20.4125 31.2491 20.3128C31.1937 20.2131 31.114 20.1292 31.0173 20.0692C31 20.0585 30.9646 20.0398 30.9646 20.0398L28.298 18.7012C28.2054 18.6548 28.1034 18.6306 28 18.6306C27.8965 18.6306 27.7945 18.6548 27.702 18.7012L25.0353 20.0398C25.0353 20.0398 25 20.0585 24.9826 20.0692C24.886 20.1292 24.8062 20.2131 24.7509 20.3128C24.6956 20.4125 24.6666 20.5247 24.6666 20.6388V23.3159C24.666 23.4409 24.7001 23.5635 24.7653 23.67C24.8304 23.7764 24.924 23.8624 25.0353 23.9183ZM30 22.9023L28.6666 23.5716V22.391L30 21.7217V22.9023ZM28 20.0485L29.176 20.6388L28 21.2291L26.824 20.6388L28 20.0485ZM26 21.7217L27.3333 22.391V23.5716L26 22.9023V21.7217Z" fill="#67AA82"/>
<path d="M33.3334 26.6624H30.6667V28.0009H34.6667V22.6467H33.3334V26.6624Z" fill="#67AA82"/>
<path d="M34 17.0762V13.2766H32.6667V16.17L29.752 17.3399L30.248 18.5834L34 17.0762Z" fill="#67AA82"/>
<path d="M7.33334 10.5995H6V17.0641L11.0707 19.246L11.596 18.0159L7.33334 16.182V10.5995Z" fill="#67AA82"/>
<path d="M19.3333 21.9774H20.6666V23.3159H19.3333V21.9774Z" fill="#67AA82"/>
<path d="M6.66669 25.9931H8V27.3317H6.66669V25.9931Z" fill="#67AA82"/>
<path d="M21.3333 24.6545H22.6666V25.9931H21.3333V24.6545Z" fill="#67AA82"/>
</svg>
