<svg viewBox="0 0 40 47" fill="currentColor" xmlns="http://www.w3.org/2000/svg">
<path d="M31.9847 45.3763H5.73852C3.3631 45.3763 1.43058 43.5486 1.43058 41.3021V10.9219C1.43058 10.5483 1.11041 10.2454 0.715289 10.2454C0.320163 10.2454 0 10.5483 0 10.9219V41.3021C0 44.2946 2.57428 46.7292 5.73852 46.7292H31.9847C32.3798 46.7292 32.7 46.4263 32.7 46.0527C32.7 45.6792 32.3798 45.3763 31.9847 45.3763ZM14.5624 20.8826H13.2847C12.8896 20.8826 12.5694 21.1855 12.5694 21.5591C12.5694 21.9327 12.8896 22.2356 13.2847 22.2356H14.5624C14.9538 22.2356 15.2722 22.5367 15.2722 22.9068C15.2722 23.2769 14.9537 23.5781 14.5624 23.5781H13.9326C13.5375 23.5781 13.2173 23.8809 13.2173 24.2545C13.2173 24.6281 13.5375 24.931 13.9326 24.931H14.5624C14.9538 24.931 15.2722 25.2322 15.2722 25.6022C15.2722 25.9724 14.9537 26.2735 14.5624 26.2735H13.2847C12.8896 26.2735 12.5694 26.5763 12.5694 26.9499C12.5694 27.3235 12.8896 27.6264 13.2847 27.6264H14.5624C15.7426 27.6264 16.7028 26.7184 16.7028 25.6022C16.7028 25.0851 16.4967 24.6127 16.1581 24.2545C16.4967 23.8964 16.7028 23.4239 16.7028 22.9068C16.7029 21.7906 15.7426 20.8826 14.5624 20.8826ZM15.2175 39.5887C14.8224 39.5887 14.5022 39.8915 14.5022 40.2651C14.5022 40.6387 14.8224 40.9416 15.2175 40.9416H24.7823C25.1774 40.9416 25.4976 40.6387 25.4976 40.2651C25.4976 39.8915 25.1774 39.5887 24.7823 39.5887H15.2175ZM29.6856 36.6724C29.6856 36.2989 29.3655 35.996 28.9703 35.996H11.0296C10.6344 35.996 10.3143 36.2989 10.3143 36.6724C10.3143 37.046 10.6344 37.3489 11.0296 37.3489H28.9702C29.3654 37.3489 29.6856 37.046 29.6856 36.6724ZM15.5349 12.1133C15.1398 12.1133 14.8196 12.4162 14.8196 12.7898V13.4907C14.8196 13.8643 15.1398 14.1672 15.5349 14.1672C15.9301 14.1672 16.2502 13.8643 16.2502 13.4907V12.7898C16.2502 12.4162 15.93 12.1133 15.5349 12.1133ZM28.4035 0.548828H5.73852C2.57428 0.548828 0 2.9834 0 5.97584V7.71608C0 8.08967 0.320163 8.39255 0.715289 8.39255C1.11041 8.39255 1.43058 8.08967 1.43058 7.71608V5.97584C1.43058 3.72941 3.3631 1.90177 5.73852 1.90177H27.6883V6.76523C27.6883 9.75776 30.2625 12.1923 33.4268 12.1923H38.5694V41.3021C38.5694 43.2 37.2078 44.8303 35.2582 45.2668C34.8738 45.3528 34.6359 45.7173 34.727 46.0809C34.8048 46.3921 35.0984 46.6017 35.4223 46.6017C35.4769 46.6017 35.5323 46.5957 35.5877 46.5834C38.1855 46.0018 40 43.83 40 41.3021V11.5159C39.9999 5.46857 34.7978 0.548828 28.4035 0.548828V0.548828ZM33.4267 10.8394C31.0513 10.8394 29.1187 9.01175 29.1187 6.76523V1.92594C34.1553 2.25868 38.1919 6.07622 38.5438 10.8395H33.4267V10.8394ZM32.5365 26.3919V14.0117C32.5365 13.4343 32.2208 12.9172 31.6922 12.6285L22.1652 7.42664C20.8296 6.6974 19.1703 6.6974 17.8347 7.42664L8.30775 12.6285C7.77901 12.9172 7.46332 13.4342 7.46332 14.0117V26.3919C7.46332 26.9692 7.77901 27.4862 8.30775 27.7749L17.8347 32.9768C18.4793 33.3287 19.1994 33.5091 19.922 33.5213C19.9477 33.5239 19.9736 33.5254 20 33.5254C20.0263 33.5254 20.0522 33.5239 20.0779 33.5213C20.8005 33.5091 21.5206 33.3287 22.1652 32.9768L31.6921 27.7749C32.2209 27.4863 32.5365 26.9692 32.5365 26.3919ZM19.2847 32.0863C19.0302 32.0254 18.7827 31.9322 18.55 31.8051L9.02294 26.6031C8.91069 26.5419 8.8939 26.4445 8.8939 26.3919V15.7148L17.8346 20.5966C18.2889 20.8447 18.7809 21.0062 19.2846 21.0856V32.0863H19.2847ZM31.1059 26.3919C31.1059 26.4445 31.0891 26.542 30.9769 26.6033L21.4499 31.8052C21.2172 31.9323 20.9697 32.0255 20.7152 32.0864V21.0856C21.2189 21.0063 21.7109 20.8447 22.1652 20.5966L31.1059 15.7148V26.3919ZM30.9769 14.2231L21.4499 19.425C20.5556 19.9133 19.4443 19.9133 18.55 19.425L9.02304 14.2231C8.91069 14.1618 8.8939 14.0643 8.8939 14.0117C8.8939 13.959 8.91069 13.8616 9.02304 13.8003L18.55 8.59838C19.4443 8.11006 20.5556 8.11006 21.4499 8.59838L30.9769 13.8003C31.0892 13.8616 31.1059 13.9591 31.1059 14.0117C31.1059 14.0643 31.0891 14.1618 30.9769 14.2231ZM24.465 12.1133C24.0698 12.1133 23.7497 12.4162 23.7497 12.7898V13.4907C23.7497 13.8643 24.0698 14.1672 24.465 14.1672C24.8601 14.1672 25.1803 13.8643 25.1803 13.4907V12.7898C25.1803 12.4162 24.8601 12.1133 24.465 12.1133ZM21.6471 13.0118C21.3491 12.7663 20.8973 12.7957 20.6379 13.0773C20.4767 13.2521 20.2443 13.3524 20 13.3524C19.7556 13.3524 19.5232 13.2521 19.362 13.0773C19.1023 12.7957 18.6507 12.7663 18.3528 13.0118C18.055 13.2572 18.0239 13.6844 18.2834 13.9661C18.7163 14.4359 19.342 14.7054 19.9999 14.7054C20.6577 14.7054 21.2834 14.436 21.7163 13.9661C21.976 13.6845 21.9449 13.2573 21.6471 13.0118ZM24.6319 27.6266H25.6264C26.5724 27.6266 27.4492 27.1814 27.9719 26.4356C28.9003 25.1108 28.9003 23.3986 27.9718 22.0736C27.4492 21.3278 26.5724 20.8826 25.6264 20.8826H24.6319C23.8985 20.8826 23.3019 21.4469 23.3019 22.1404V26.3687C23.3019 27.0623 23.8986 27.6266 24.6319 27.6266ZM24.7325 22.2356H25.6264C26.0914 22.2356 26.5225 22.4545 26.7794 22.821C27.3896 23.6919 27.3896 24.8173 26.7795 25.6881C26.5225 26.0547 26.0914 26.2736 25.6264 26.2736H24.7325V22.2356Z" fill="#5181DF"/>
</svg>
