<svg width="40" height="41" viewBox="0 0 40 41" fill="none" xmlns="http://www.w3.org/2000/svg">
<path d="M37.9661 15.9536H35.7657L35.0448 13.463C34.8623 12.8348 34.4535 12.2941 33.8955 11.9425C33.3374 11.591 32.6684 11.4528 32.0144 11.5541L22.1455 13.0925C21.8288 13.1417 21.5275 13.2605 21.2636 13.4401C20.9998 13.6198 20.7802 13.8557 20.6211 14.1303C20.462 14.405 20.3675 14.7115 20.3446 15.0271C20.3216 15.3427 20.3708 15.6593 20.4885 15.9536H18.9831C18.8492 15.9536 18.7184 15.9928 18.607 16.0661L16.7439 17.2922H15.5933V18.6307H16.7439L18.607 19.8568C18.7184 19.9302 18.8492 19.9693 18.9831 19.9693H22.0921L23.7402 21.5963C23.7924 22.2722 24.0361 22.9199 24.4433 23.4657C24.8506 24.0114 25.405 24.4331 26.0434 24.6827L27.1187 25.1074V30.5201L25.8344 33.0558C25.7877 33.1489 25.7636 33.2514 25.764 33.3552H25.7628V40.7172H27.1187V34.024H35.9322V40.7168H37.2882V33.3548H37.2869C37.2874 33.2509 37.2633 33.1484 37.2166 33.0554L35.9322 30.5197V19.9693H37.9661C38.5056 19.9693 39.0229 19.7577 39.4043 19.3812C39.7858 19.0047 40 18.494 40 17.9615C40 17.429 39.7858 16.9183 39.4043 16.5417C39.0229 16.1652 38.5056 15.9536 37.9661 15.9536ZM21.695 15.1794C21.6942 14.9947 21.7606 14.816 21.8821 14.6756C22.0036 14.5352 22.1721 14.4426 22.357 14.4146L32.2258 12.8762C32.5528 12.8255 32.8874 12.8945 33.1665 13.0703C33.4455 13.2461 33.6499 13.5165 33.7411 13.8307L34.3555 15.9536H30.7894L31.6659 15.0884L30.7071 14.1418L28.8718 15.9536H22.4793C22.2713 15.9534 22.072 15.8718 21.9249 15.7266C21.7779 15.5815 21.6952 15.3847 21.695 15.1794ZM18.1714 17.9615L19.1883 17.2922H21.1588C20.9916 17.7201 20.9717 18.1905 21.102 18.6307H19.1883L18.1714 17.9615ZM27.5377 32.6855L28.2156 31.3469H34.8353L35.5133 32.6855H27.5377ZM34.5763 30.0084H28.4746V24.6542C28.4746 24.5204 28.434 24.3897 28.3581 24.279C28.2821 24.1682 28.1742 24.0825 28.0484 24.0328L26.5471 23.44C26.1145 23.2708 25.7437 22.9769 25.4828 22.5965C25.222 22.2162 25.0833 21.7671 25.0848 21.3078C25.0848 21.2199 25.0673 21.1329 25.0332 21.0517C24.9991 20.9705 24.9492 20.8967 24.8862 20.8346L22.5956 18.5733C22.4893 18.4684 22.4169 18.3347 22.3875 18.1891C22.3582 18.0435 22.3732 17.8926 22.4307 17.7554C22.4883 17.6183 22.5857 17.5011 22.7108 17.4186C22.8358 17.3362 22.9828 17.2922 23.1332 17.2922H23.3894C23.5073 17.2923 23.6237 17.3195 23.7293 17.3714L28.751 19.8501L30.7071 21.7811L31.6659 20.8346L30.7894 19.9693H34.5763V30.0084ZM29.3127 18.6307L26.6008 17.2922H35.9322V18.6307H29.3127ZM37.9661 18.6307H37.2882V17.2922H37.9661C38.146 17.2922 38.3184 17.3627 38.4455 17.4882C38.5727 17.6137 38.6441 17.784 38.6441 17.9615C38.6441 18.139 38.5727 18.3092 38.4455 18.4347C38.3184 18.5602 38.146 18.6307 37.9661 18.6307Z" fill="#F5961B"/>
<path d="M0 3.90694V38.0399C0 38.2174 0.0714283 38.3877 0.198572 38.5132C0.325715 38.6387 0.498158 38.7092 0.677966 38.7092H24.4068V37.3707H1.35593V4.57622H31.8644V9.93041H33.2203V3.90694C33.2203 3.72944 33.1489 3.55921 33.0218 3.4337C32.8946 3.30818 32.7222 3.23767 32.5424 3.23767H0.677966C0.498158 3.23767 0.325715 3.30818 0.198572 3.4337C0.0714283 3.55921 0 3.72944 0 3.90694Z" fill="#F5961B"/>
<path d="M13.522 13.342C15.5016 12.983 17.5447 13.2124 19.392 14.0013L19.93 12.7726C17.8018 11.8648 15.4456 11.6117 13.1693 12.0466C10.8931 12.4815 8.80269 13.5841 7.17125 15.2103C5.5398 16.8365 4.44319 18.9107 4.02472 21.1618C3.60625 23.413 3.88537 25.7364 4.82562 27.8285C5.76587 29.9206 7.32351 31.684 9.29501 32.8884C11.2665 34.0928 13.5602 34.6821 15.8763 34.5793C18.1924 34.4766 20.4233 33.6865 22.2774 32.3124C24.1315 30.9383 25.5227 29.044 26.269 26.8771L24.9847 26.4476C24.4469 28.0076 23.5286 29.413 22.3106 30.5398C21.0925 31.6666 19.6123 32.4802 18.0005 32.9087L23.0114 27.9621L22.0526 27.0156L15.7432 33.2444C15.1336 33.2673 14.5232 33.2365 13.9191 33.1524L18.3824 28.7463L17.4237 27.8001L12.3513 32.8075C11.8788 32.6643 11.4175 32.487 10.9713 32.2771L15.4478 27.8572L14.489 26.9109L9.74578 31.5938C9.36509 31.345 9.00186 31.0711 8.65858 30.7739L12.5135 26.9684L11.5547 26.0219L7.69951 29.8277C7.39829 29.489 7.12041 29.1308 6.86773 28.7554L11.274 24.4064L10.3154 23.4599L6.17316 27.5478C5.95988 27.1079 5.77979 26.6531 5.63434 26.1871L10.0339 21.8436L9.0751 20.897L5.2851 24.6388C5.21787 24.1681 5.18412 23.6933 5.18409 23.2179C5.18409 23.0909 5.18722 22.9644 5.19197 22.8382L9.47264 18.6124L8.51383 17.6659L5.52866 20.6128C6.02958 18.7794 7.04616 17.1236 8.46075 15.8369C9.87534 14.5501 11.6301 13.6852 13.522 13.342Z" fill="#F5961B"/>
<path d="M21.3548 10.4321C22.3671 10.4321 22.8183 9.54142 23.1478 8.89097C23.319 8.55282 23.5536 8.08968 23.7279 8.08968C23.9021 8.08968 24.1367 8.55282 24.3081 8.89097C24.6376 9.54142 25.0889 10.4321 26.1012 10.4321C27.1134 10.4321 27.5648 9.54142 27.8942 8.89097C28.0656 8.55282 28.3001 8.08968 28.4745 8.08968V6.75113C27.4623 6.75113 27.0109 7.64185 26.6815 8.2923C26.5101 8.63045 26.2756 9.09359 26.1012 9.09359C25.9268 9.09359 25.6922 8.63045 25.5208 8.29222C25.1914 7.64185 24.7401 6.75113 23.7279 6.75113C22.7156 6.75113 22.2645 7.64185 21.935 8.2923C21.7637 8.63045 21.5291 9.09359 21.3548 9.09359C21.1805 9.09359 20.9461 8.63045 20.7748 8.2923C20.4453 7.64193 19.9941 6.75113 18.9818 6.75113C17.9695 6.75113 17.5184 7.64185 17.189 8.2923C17.0178 8.63045 16.7832 9.09359 16.609 9.09359C16.4347 9.09359 16.2002 8.63045 16.029 8.2923C15.6995 7.64193 15.2483 6.75113 14.236 6.75113C13.2237 6.75113 12.7728 7.64185 12.4434 8.2923C12.2721 8.63045 12.0375 9.09359 11.8634 9.09359C11.6892 9.09359 11.4547 8.63045 11.2835 8.29239C10.9541 7.64193 10.503 6.75113 9.49081 6.75113C8.47861 6.75113 8.02768 7.64193 7.69836 8.29239C7.52708 8.63045 7.29259 9.09359 7.11861 9.09359C6.94463 9.09359 6.70997 8.63045 6.53861 8.29239C6.2092 7.64193 5.75793 6.75113 4.74573 6.75113V8.08968C4.91996 8.08968 5.15446 8.55282 5.32581 8.89097C5.65513 9.54142 6.10641 10.4321 7.11861 10.4321C8.13081 10.4321 8.58192 9.54134 8.91124 8.89089C9.08242 8.55274 9.31692 8.08968 9.4909 8.08968C9.66488 8.08968 9.89954 8.55282 10.0708 8.89089C10.4002 9.54134 10.8513 10.4321 11.8634 10.4321C12.8756 10.4321 13.3268 9.54134 13.6562 8.89089C13.8274 8.55274 14.062 8.08968 14.2361 8.08968C14.4101 8.08968 14.645 8.55282 14.8162 8.89097C15.1457 9.54142 15.5968 10.4321 16.609 10.4321C17.6212 10.4321 18.0725 9.54142 18.4019 8.89097C18.5732 8.55282 18.8078 8.08968 18.9819 8.08968C19.1561 8.08968 19.3908 8.55282 19.5621 8.89097C19.8915 9.54142 20.3426 10.4321 21.3548 10.4321Z" fill="#F5961B"/>
<path d="M24.4068 0.560547H5.42371V1.89908H24.4068V0.560547Z" fill="#F5961B"/>
<path d="M27.1186 0.560547H25.7627V1.89908H27.1186V0.560547Z" fill="#F5961B"/>
</svg>
