<svg width="40" height="41" viewBox="0 0 40 41" fill="none" xmlns="http://www.w3.org/2000/svg">
<path d="M39.3333 33.0443H38V8.53367C37.9999 8.30988 37.972 8.08726 37.9173 7.87254L38.9706 6.66019C39.1563 6.44653 39.3037 6.19284 39.4042 5.91361C39.5047 5.63438 39.5565 5.33509 39.5565 5.03283C39.5565 4.73058 39.5047 4.43129 39.4042 4.15206C39.3037 3.87283 39.1563 3.61913 38.9706 3.40547L37.0848 1.23495C36.8991 1.02114 36.6786 0.851536 36.4359 0.73582C36.1933 0.620105 35.9331 0.560547 35.6705 0.560547C35.4078 0.560547 35.1477 0.620105 34.905 0.73582C34.6623 0.851536 34.4418 1.02114 34.2561 1.23495L29.9522 6.18859H4.0375C3.4973 6.18927 2.9794 6.43656 2.59743 6.8762C2.21545 7.31584 2.0006 7.91193 2 8.53367V33.0443H0.666667C0.489856 33.0443 0.320286 33.1252 0.195262 33.2691C0.0702379 33.413 0 33.6081 0 33.8116V37.4564C0.00083816 38.3209 0.299618 39.1498 0.83079 39.7612C1.36196 40.3726 2.08214 40.7164 2.83333 40.7174H37.1667C37.9179 40.7164 38.638 40.3726 39.1692 39.7612C39.7004 39.1498 39.9992 38.3209 40 37.4564V33.8116C40 33.6081 39.9298 33.413 39.8047 33.2691C39.6797 33.1252 39.5101 33.0443 39.3333 33.0443ZM17.3333 23.1694C18.0873 22.7105 18.7268 22.0375 19.1913 21.2143C19.6559 20.391 19.93 19.4449 19.9877 18.4655H22.0549L21.3778 20.492C21.3314 20.6305 21.321 20.7815 21.3478 20.9267C21.3746 21.0719 21.4374 21.2051 21.5286 21.31C21.6197 21.415 21.7354 21.4873 21.8616 21.5181C21.9878 21.5489 22.119 21.5369 22.2393 21.4836L24.6667 20.4091V26.9059H17.3333V23.1694ZM16 22.1412C15.3023 22.3691 14.5615 22.3536 13.8714 22.0969C13.1813 21.8402 12.5729 21.3537 12.123 20.6989C11.6731 20.0441 11.4021 19.2505 11.3442 18.4185C11.2862 17.5864 11.444 16.7532 11.7975 16.0243C12.151 15.2955 12.6843 14.7036 13.3301 14.3236C13.9759 13.9437 14.705 13.7927 15.4254 13.8897C16.1457 13.9867 16.8249 14.3275 17.3769 14.8688C17.929 15.4101 18.3292 16.1278 18.5269 16.9309H16.6667C16.4899 16.9309 16.3203 17.0117 16.1953 17.1556C16.0702 17.2995 16 17.4947 16 17.6982V22.1412ZM17.3333 18.4655H18.6508C18.6068 19.0202 18.4677 19.5594 18.2415 20.0519C18.0154 20.5444 17.7067 20.9804 17.3333 21.3348V18.4655ZM23.1607 19.4315L23.8253 17.4427L24.8887 18.6665L23.1607 19.4315ZM26.2506 18.0637L24.3491 15.8752L24.8148 14.4814H25.7622L26.0816 15.5844C26.1143 15.6974 26.1695 15.8001 26.2426 15.8843C26.3158 15.9685 26.4051 16.032 26.5033 16.0697L27.4616 16.4373V17.5276L26.2506 18.0637ZM28.339 15.1565L27.9482 15.0066L33.7851 8.28852L34.7277 9.37291L28.7949 16.2019V15.8846C28.7949 15.7235 28.7509 15.5665 28.6691 15.4358C28.5873 15.3051 28.4718 15.2074 28.339 15.1565ZM27.0057 13.9214L26.8754 13.4715C26.8312 13.3187 26.7463 13.1858 26.6327 13.0917C26.5192 12.9975 26.3828 12.9468 26.2429 12.9468H25.9663L31.8997 6.1178L32.8427 7.20316L27.0057 13.9214ZM23.8853 13.1711L23.8864 13.1724C23.8202 13.2478 23.7686 13.3384 23.7347 13.4383L22.5681 16.9306H19.8997C19.7017 15.8159 19.221 14.7938 18.5184 13.9935C17.8157 13.1933 16.9227 12.6507 15.9522 12.4345C14.9817 12.2183 13.9773 12.3381 13.0659 12.7788C12.1546 13.2195 11.3772 13.9613 10.8321 14.9104C10.287 15.8596 9.99864 16.9734 10.0035 18.1111C10.0083 19.2489 10.3061 20.3594 10.8592 21.3024C11.4123 22.2454 12.1959 22.9784 13.1109 23.4089C14.026 23.8393 15.0314 23.9479 16 23.7208V27.6732C16 27.8767 16.0702 28.0719 16.1953 28.2158C16.3203 28.3597 16.4899 28.4405 16.6667 28.4405H25.3333C25.5101 28.4405 25.6797 28.3597 25.8047 28.2158C25.9298 28.0719 26 27.8767 26 27.6732V19.8188L28.3676 18.7708C28.4545 18.7318 28.5334 18.6722 28.599 18.5958L28.5998 18.5966L33.9998 12.3814V29.9751H6V10.7924H25.9522L23.8853 13.1711ZM35.6705 8.28813L32.8421 5.03274L33.7849 3.94757L36.6133 7.20297L35.6705 8.28813ZM35.6705 2.0952C35.7581 2.09493 35.8449 2.11468 35.9258 2.15328C36.0068 2.19189 36.0802 2.2486 36.142 2.32011L38.0282 4.49092C38.09 4.56206 38.1391 4.64653 38.1726 4.73952C38.2061 4.8325 38.2233 4.93217 38.2233 5.03283C38.2233 5.13349 38.2061 5.23316 38.1726 5.32615C38.1391 5.41913 38.09 5.50361 38.0282 5.57474L37.5566 6.11752L34.7278 2.86241L35.199 2.32011C35.2607 2.24859 35.3342 2.19189 35.4151 2.15328C35.496 2.11467 35.5828 2.09493 35.6704 2.0952H35.6705ZM3.33333 8.53367C3.33355 8.3188 3.40781 8.1128 3.53982 7.96086C3.67183 7.80893 3.85081 7.72346 4.0375 7.7232H28.6188L27.2855 9.25782H5.33333C5.15652 9.25782 4.98695 9.33866 4.86193 9.48256C4.7369 9.62645 4.66667 9.82162 4.66667 10.0251V30.7424C4.66667 30.9459 4.7369 31.1411 4.86193 31.285C4.98695 31.4289 5.15652 31.5097 5.33333 31.5097H34.6667C34.8435 31.5097 35.0131 31.4289 35.1381 31.285C35.2631 31.1411 35.3333 30.9459 35.3333 30.7424V10.8465L36.6667 9.31191V33.0443H3.33333V8.53367ZM16.6667 34.579H23.3333V35.3463C23.3331 35.5497 23.2628 35.7447 23.1379 35.8886C23.0129 36.0324 22.8434 36.1133 22.6667 36.1136H17.3333C17.1566 36.1133 16.9871 36.0324 16.8621 35.8886C16.7372 35.7447 16.6669 35.5497 16.6667 35.3463V34.579ZM38.6667 37.4564C38.6662 37.9141 38.508 38.3529 38.2268 38.6765C37.9456 39.0002 37.5644 39.1823 37.1667 39.1828H2.83333C2.43565 39.1823 2.05439 39.0002 1.77318 38.6765C1.49198 38.3529 1.3338 37.9141 1.33333 37.4564V34.579H15.3333V35.3463C15.3339 35.9566 15.5448 36.5417 15.9198 36.9732C16.2947 37.4048 16.8031 37.6475 17.3333 37.6482H22.6667C23.1969 37.6475 23.7053 37.4048 24.0802 36.9732C24.4552 36.5417 24.6661 35.9566 24.6667 35.3463V34.579H38.6667V37.4564Z" fill="#F5421B"/>
</svg>
