<svg width="40" height="41" viewBox="0 0 40 41" fill="none" xmlns="http://www.w3.org/2000/svg">
<path d="M24.5776 29.5699H26.894V25.6415H24.5776V29.5699ZM34.1667 5.10728C34.9086 5.10728 35.5796 5.45064 36.0646 6.00366C36.5496 6.55651 36.8509 7.32151 36.8509 8.1673C36.8509 9.01059 36.5496 9.77568 36.0646 10.3311C35.5796 10.884 34.9086 11.2274 34.1667 11.2274C33.4248 11.2274 32.756 10.884 32.2688 10.3311C31.9366 9.9499 31.6909 9.47018 31.5691 8.9323C31.0597 9.13172 30.5703 9.62926 30.1318 10.3538C29.4628 11.4546 28.9291 13.0478 28.608 14.9414C28.566 15.2038 28.3866 15.4261 28.1407 15.4791C27.8241 15.5473 27.5162 15.3125 27.4564 14.9489C27.1353 13.0528 26.5994 11.4572 25.9306 10.3538C25.3482 9.3943 24.6816 8.83379 23.9928 8.83379C23.304 8.83379 22.6374 9.3943 22.055 10.3538C21.3862 11.4546 20.8524 13.0478 20.5313 14.9414C20.4893 15.2038 20.3099 15.4261 20.0641 15.4791C19.7474 15.5473 19.4396 15.3125 19.3798 14.9489C19.0588 13.0528 18.5227 11.4572 17.854 10.3538C17.2716 9.3943 16.6027 8.83379 15.9162 8.83379C15.2274 8.83379 14.5608 9.3943 13.9784 10.3538C13.3095 11.4572 12.7737 13.0528 12.4526 14.9489C12.3905 15.3125 12.0849 15.5473 11.7683 15.4791C11.4516 15.4109 11.2434 15.06 11.3032 14.699C11.6553 12.6236 12.2554 10.8512 13.0173 9.59639C13.8211 8.27079 14.8155 7.49822 15.9161 7.49822C17.0167 7.49822 18.0111 8.27079 18.8151 9.59639C19.2535 10.3185 19.6389 11.2148 19.9533 12.2423C20.27 11.2148 20.6553 10.3185 21.0938 9.59639C21.8977 8.27079 22.8921 7.49822 23.9928 7.49822C25.0935 7.49822 26.0878 8.27079 26.8916 9.59639C27.3302 10.3185 27.7155 11.2148 28.0299 12.2423C28.3466 11.2148 28.7319 10.3185 29.1705 9.59639C29.8415 8.48803 30.6477 7.76845 31.5356 7.56128C31.642 6.95793 31.9033 6.42005 32.2687 6.00366C32.756 5.45064 33.4248 5.10728 34.1667 5.10728ZM35.2363 6.94787C34.9617 6.63738 34.5852 6.44294 34.1667 6.44294C33.7504 6.44294 33.3717 6.63738 33.0971 6.94787C32.8248 7.26094 32.6564 7.69016 32.6564 8.1673C32.6564 8.64194 32.8247 9.07374 33.0971 9.38681C33.3718 9.6973 33.7504 9.88934 34.1667 9.88934C34.5852 9.88934 34.9618 9.69739 35.2363 9.38681C35.5087 9.07365 35.6793 8.64194 35.6793 8.1673C35.6793 7.69016 35.5088 7.26085 35.2363 6.94787ZM13.8722 26.7195C13.8722 26.3484 14.1357 26.0504 14.4591 26.0504C14.7824 26.0504 15.0459 26.3484 15.0459 26.7195V36.0637C15.0459 36.4324 14.7824 36.7328 14.4591 36.7328C14.1357 36.7328 13.8722 36.4324 13.8722 36.0637V26.7195ZM10.6633 26.9644C10.9313 27.1689 11.0021 27.5829 10.8205 27.8884C10.6412 28.194 10.2758 28.2747 10.0078 28.0702C9.71992 27.848 9.40539 27.6739 9.0732 27.5576C8.75211 27.4467 8.40664 27.386 8.04336 27.386C7.07344 27.386 6.19641 27.8354 5.55859 28.5601C4.92305 29.2847 4.53109 30.2844 4.53109 31.3903C4.53109 32.4962 4.92313 33.4985 5.55859 34.2232C6.19641 34.9478 7.07344 35.3972 8.04336 35.3972C8.95141 35.3972 9.66226 34.9983 10.154 34.352C10.5969 33.7637 10.8737 32.9658 10.9645 32.0596H9.13078C8.80523 32.0596 8.54383 31.7615 8.54383 31.3904C8.54383 31.0217 8.80523 30.7238 9.13078 30.7238H11.5823C11.9057 30.7238 12.1692 31.0218 12.1692 31.3904C12.1692 32.885 11.7751 34.2459 11.0377 35.223C10.329 36.1597 9.31688 36.7328 8.04344 36.7328C6.75016 36.7328 5.57867 36.1343 4.73047 35.1675C3.88453 34.2005 3.35961 32.8674 3.35961 31.3904C3.35961 29.9159 3.88453 28.5802 4.73047 27.6158C5.57875 26.6489 6.75023 26.0505 8.04344 26.0505C8.51516 26.0505 8.97586 26.1312 9.41211 26.2853C9.86602 26.4418 10.2869 26.6741 10.6633 26.9644ZM20.6334 26.0504C20.9567 26.0504 21.2202 26.3484 21.2202 26.7195C21.2202 27.0882 20.9567 27.386 20.6334 27.386H17.9227V30.6H20.372C20.6954 30.6 20.959 30.9004 20.959 31.2692C20.959 31.6377 20.6954 31.9382 20.372 31.9382H17.9227V35.9956C17.9227 36.3642 17.6592 36.6646 17.3359 36.6646C17.0125 36.6646 16.749 36.3642 16.749 35.9956V26.7195C16.749 26.3484 17.0125 26.0504 17.3359 26.0504H20.6334ZM1.17148 29.8779C1.17148 30.2466 0.910156 30.547 0.586875 30.547C0.263594 30.547 0 30.2466 0 29.8779V26.1641C0 25.0304 0.4075 23.9978 1.06297 23.2504C1.71852 22.503 2.62422 22.0385 3.61867 22.0385H7.98586V13.5048C7.98586 13.1361 8.24719 12.8382 8.57047 12.8382C8.89383 12.8382 9.15734 13.1362 9.15734 13.5048V19.3371H38.8285V13.5048C38.8285 13.1361 39.092 12.8382 39.4154 12.8382C39.7388 12.8382 40 13.1362 40 13.5048V20.0061V22.2532C40 23.1848 39.6656 24.0331 39.1274 24.6467C38.5893 25.2602 37.8452 25.6415 37.028 25.6415H28.0655V29.5699H29.7862C30.3001 29.5699 30.7651 29.8073 31.1017 30.1911C31.4384 30.5749 31.6466 31.105 31.6466 31.6882C31.6466 32.2716 31.4384 32.8018 31.1017 33.1856C30.7651 33.5694 30.3001 33.8091 29.7862 33.8091H24.5775V36.6192C24.5775 37.7529 24.1722 38.7854 23.5167 39.5327C22.8612 40.2802 21.9555 40.7448 20.9589 40.7448H3.61867C2.62422 40.7448 1.71852 40.2801 1.06297 39.5327C0.4075 38.7854 0 37.7528 0 36.6191V32.9053C0 32.5366 0.263594 32.236 0.586875 32.236C0.910234 32.236 1.17148 32.5366 1.17148 32.9053V36.6191C1.17148 37.3841 1.44836 38.0809 1.89125 38.5883C2.33633 39.0933 2.94758 39.4089 3.61867 39.4089H20.9589C21.6321 39.4089 22.2433 39.0933 22.6863 38.5883C23.1313 38.0809 23.406 37.384 23.406 36.6191C23.406 33.1324 23.406 29.6481 23.406 26.164C23.406 25.4242 23.1469 24.7198 22.6863 24.1946C22.2433 23.6871 21.6321 23.3741 20.9589 23.3741H3.61867C2.94758 23.3741 2.33633 23.6871 1.89125 24.1946C1.44836 24.6996 1.17148 25.399 1.17148 26.164V29.8779ZM9.15734 22.0385H20.959C21.9555 22.0385 22.8613 22.503 23.5168 23.2503C23.787 23.5583 24.0152 23.9143 24.1879 24.3057H37.0281C37.522 24.3057 37.9715 24.0759 38.2992 23.7023C38.627 23.3287 38.8285 22.8161 38.8285 22.2531V20.6752H9.15734V22.0385ZM30.2713 31.1353C30.1473 30.9939 29.9768 30.9055 29.7863 30.9055H24.5776V32.4736H29.7863C29.9768 32.4736 30.1473 32.3852 30.2713 32.2413C30.3976 32.0998 30.4751 31.9028 30.4751 31.6882C30.4751 31.4736 30.3976 31.2767 30.2713 31.1353ZM9.15734 10.4801C9.15734 10.8488 8.89383 11.1465 8.57047 11.1465C8.24711 11.1465 7.98586 10.8487 7.98586 10.4801V3.97879C7.98586 3.04465 8.31805 2.19886 8.85836 1.58269C9.39656 0.96919 10.1407 0.587891 10.9579 0.587891H37.028C37.8452 0.587891 38.5893 0.96919 39.1274 1.58269C39.6656 2.19877 40 3.04456 40 3.97879V10.4801C40 10.8488 39.7387 11.1465 39.4154 11.1465C39.0921 11.1465 38.8285 10.8487 38.8285 10.4801V3.97879C38.8285 3.41321 38.627 2.90072 38.2992 2.52699C37.9715 2.15584 37.522 1.92364 37.0281 1.92364H10.9579C10.4641 1.92364 10.0123 2.15584 9.68664 2.52699C9.35891 2.90063 9.15742 3.41321 9.15742 3.97879V10.4801H9.15734Z" fill="#E2E47A"/>
</svg>
